<?xml version="1.0" encoding="UTF-8" standalone="no"?>
<svg width="100%" height="100%" viewBox="0 0 23 23" version="1.1" xmlns="http://www.w3.org/2000/svg" xml:space="preserve" style="fill-rule:evenodd;clip-rule:evenodd;stroke-linejoin:round;stroke-miterlimit:2;">
    <g>
        <path d="M11.953,20.073C11.401,19.706 10.682,19.706 10.13,20.073C7.856,21.578 4.759,21.329 2.756,19.327C0.754,17.324 0.505,14.228 2.011,11.953C2.377,11.401 2.377,10.682 2.011,10.13C0.505,7.856 0.754,4.759 2.756,2.756C4.759,0.754 7.856,0.505 10.13,2.011C10.682,2.377 11.401,2.377 11.953,2.011C14.228,0.505 17.324,0.754 19.327,2.756C21.33,4.759 21.578,7.856 20.073,10.13C19.706,10.682 19.706,11.401 20.073,11.953C21.578,14.228 21.33,17.324 19.327,19.327C17.324,21.329 14.228,21.578 11.953,20.073Z" style="fill:none;stroke:black;stroke-width:2.08px;"/>
        <path d="M6.404,6.404L15.679,15.679" style="fill:none;stroke:black;stroke-width:2.08px;stroke-linecap:round;stroke-miterlimit:1.5;"/>
        <path d="M15.679,6.404L6.404,15.679" style="fill:none;stroke:black;stroke-width:2.08px;stroke-linecap:round;stroke-miterlimit:1.5;"/>
    </g>
</svg>
