<svg width="184" height="184" viewBox="-10 -10 184 184" fill="none" xmlns="http://www.w3.org/2000/svg">
<path fill-rule="evenodd" clip-rule="evenodd" d="M63.1318 144.543C60.4661 140.582 55.6869 138.602 51.0011 139.518C31.7234 143.267 11.8072 133.08 4.00313 114.239C-3.80097 95.3986 3.07868 74.1125 19.361 63.1321C23.3221 60.4664 25.3018 55.6873 24.3858 51.0015C20.6367 31.7238 30.8235 11.8077 49.6643 4.00358C68.5051 -3.80052 89.7911 3.07919 100.771 19.3615C103.437 23.3226 108.216 25.3021 112.902 24.3861C132.18 20.6371 152.096 30.824 159.9 49.6648C167.704 68.5055 160.825 89.7916 144.542 100.772C140.581 103.438 138.601 108.217 139.517 112.903C143.266 132.18 133.08 152.096 114.239 159.901C95.3981 167.705 74.1122 160.825 63.1318 144.543Z" fill="url(#favicon_gradient)"/>
<defs>
<linearGradient id="favicon_gradient" x1="166.31" y1="76.9328" x2="7.41669" y2="76.9327" gradientUnits="userSpaceOnUse">
<stop stop-color="#BAFF46" stop-opacity="0.4"/>
<stop offset="1" stop-color="#BAFF46"/>
</linearGradient>
</defs>
</svg>
